HIERARCHY
ROOT joint_Root
{
	OFFSET 0.0 0.0 0.0
	CHANNELS 6 Xposition Yposition Zposition Zrotation Xrotation Yrotation 
	JOINT Hips
	{
		OFFSET -17.1583 93.1646 452.98
		CHANNELS 6 Xposition Yposition Zposition Zrotation Xrotation Yrotation 
		JOINT Spine
		{
			OFFSET 15.7357 0.0 0.0
			CHANNELS 6 Xposition Yposition Zposition Zrotation Xrotation Yrotation 
			JOINT Chest
			{
				OFFSET 8.98455 -0.406207 0.0
				CHANNELS 6 Xposition Yposition Zposition Zrotation Xrotation Yrotation 
				JOINT Neck
				{
					OFFSET 16.3773 0.0 0.0
					CHANNELS 6 Xposition Yposition Zposition Zrotation Xrotation Yrotation 
					JOINT Head
					{
						OFFSET 6.45672 0.0 0.0
						CHANNELS 6 Xposition Yposition Zposition Zrotation Xrotation Yrotation 
						End Site
						{
							OFFSET 0.0 0.0 0.0
						}
					}
				}
				JOINT Shoulder_L
				{
					OFFSET 12.9942 -0.242716 4.98039
					CHANNELS 6 Xposition Yposition Zposition Zrotation Xrotation Yrotation 
					JOINT UpperArm_L
					{
						OFFSET 5.34809 0.0 0.0
						CHANNELS 6 Xposition Yposition Zposition Zrotation Xrotation Yrotation 
						JOINT LowerArm_L
						{
							OFFSET 24.3286 1.87007e-05 0.0
							CHANNELS 6 Xposition Yposition Zposition Zrotation Xrotation Yrotation 
							JOINT Hand_L
							{
								OFFSET 22.2916 0.0 0.0
								CHANNELS 6 Xposition Yposition Zposition Zrotation Xrotation Yrotation 
								End Site
								{
									OFFSET 0.0 0.0 0.0
								}
							}
						}
					}
				}
				JOINT Shoulder_R
				{
					OFFSET 12.9945 -0.242716 -4.98039
					CHANNELS 6 Xposition Yposition Zposition Zrotation Xrotation Yrotation 
					JOINT UpperArm_R
					{
						OFFSET -5.34813 0.0 0.0
						CHANNELS 6 Xposition Yposition Zposition Zrotation Xrotation Yrotation 
						JOINT LowerArm_R
						{
							OFFSET -24.3289 0.000322201 0.0
							CHANNELS 6 Xposition Yposition Zposition Zrotation Xrotation Yrotation 
							JOINT Hand_R
							{
								OFFSET -22.2915 -0.000108084 0.0
								CHANNELS 6 Xposition Yposition Zposition Zrotation Xrotation Yrotation 
								End Site
								{
									OFFSET 0.0 0.0 0.0
								}
							}
						}
					}
				}
			}
		}
		JOINT UpperLeg_L
		{
			OFFSET -2.19248 -6.46944 0.0
			CHANNELS 6 Xposition Yposition Zposition Zrotation Xrotation Yrotation 
			JOINT LowerLeg_L
			{
				OFFSET 39.0811 0.0 -1.23785e-05
				CHANNELS 6 Xposition Yposition Zposition Zrotation Xrotation Yrotation 
				JOINT Foot_L
				{
					OFFSET 40.9854 0.0 -1.26872e-05
					CHANNELS 6 Xposition Yposition Zposition Zrotation Xrotation Yrotation 
					JOINT Toes_L
					{
						OFFSET 11.7543 0.0 0.0
						CHANNELS 6 Xposition Yposition Zposition Zrotation Xrotation Yrotation 
						End Site
						{
							OFFSET 0.0 0.0 0.0
						}
					}
				}
			}
		}
		JOINT UpperLeg_R
		{
			OFFSET -2.19251 6.46944 0.0
			CHANNELS 6 Xposition Yposition Zposition Zrotation Xrotation Yrotation 
			JOINT LowerLeg_R
			{
				OFFSET -39.0811 -0.00228153 -0.0401928
				CHANNELS 6 Xposition Yposition Zposition Zrotation Xrotation Yrotation 
				JOINT Foot_R
				{
					OFFSET -40.9854 0.0 0.0
					CHANNELS 6 Xposition Yposition Zposition Zrotation Xrotation Yrotation 
					JOINT Toes_R
					{
						OFFSET -11.7543 0.0 0.0
						CHANNELS 6 Xposition Yposition Zposition Zrotation Xrotation Yrotation 
						End Site
						{
							OFFSET 0.0 0.0 0.0
						}
					}
				}
			}
		}
	}
}
MOTION
Frames:	6
Frame Time:	0.0333333
0.000000 0.000000 0.000000 0.000000 0.000000 -0.000000 0.968163 92.782500 2.256040 89.085900 1.507010 2.035830 15.735700 0.000005 -0.000001 89.169300 87.561100 -84.559700 8.984550 -0.406207 -0.000000 -2.852040 -0.497219 9.207700 16.377300 -0.000001 -0.000001 -0.613655 2.628730 0.569030 6.456720 -0.000001 -0.000000 4.928930 1.827560 21.517000 12.994200 -0.242716 4.980390 -88.528300 -2.869240 -62.831100 5.348090 -0.000007 -0.000001 -52.217700 -61.280600 -103.975000 24.328600 0.000019 0.000005 30.714200 32.674200 -47.736500 22.291600 -0.000001 0.000005 53.636800 4.946990 8.382520 12.994500 -0.242716 -4.980390 89.153900 2.803080 -73.196900 -5.348130 -0.000001 -0.000004 -64.800100 10.030500 -3.152730 -24.328900 0.000322 -0.000009 1.312790 6.096750 -12.185700 -22.291500 -0.000108 -0.000004 6.949630 5.189060 2.991700 -2.192480 -6.469440 -0.000000 -174.962000 -4.226240 1.288840 39.081100 -0.000007 -0.000012 0.022147 -0.077888 15.873100 40.985400 -0.000006 -0.000013 0.454584 14.181100 -70.409500 11.754300 -0.000000 0.000003 -0.001134 0.184925 -9.075180 -2.192510 6.469440 -0.000001 174.585000 4.814570 -175.713000 -39.081100 -0.002282 -0.040193 0.003593 -0.001288 11.246000 -40.985400 0.000008 0.000006 -7.487740 6.740560 -68.389200 -11.754300 -0.000006 -0.000006 -0.010517 0.275126 -5.394660
0.000000 0.000000 0.000000 0.000000 0.000000 -0.000000 1.019510 92.762900 2.276240 89.066200 1.455830 2.071380 15.735700 0.000005 -0.000001 88.529500 87.576800 -83.910300 8.984550 -0.406207 -0.000000 -2.882220 -0.552962 9.225580 16.377300 -0.000001 -0.000001 -0.567569 2.839190 0.308108 6.456720 -0.000001 -0.000000 5.098340 1.981640 21.669200 12.994200 -0.242716 4.980390 -88.561400 -2.788180 -62.694000 5.348090 -0.000007 -0.000001 -49.363200 -61.038700 -104.002000 24.328600 0.000019 0.000005 39.984600 38.238500 -53.571600 22.291600 -0.000001 0.000005 62.278300 4.835490 10.641500 12.994500 -0.242716 -4.980390 89.124300 2.917600 -73.284600 -5.348130 -0.000001 -0.000004 -65.069800 10.136700 -3.471810 -24.328900 0.000322 -0.000009 1.285640 5.552430 -13.069200 -22.291500 -0.000108 -0.000004 6.782050 5.193860 2.872660 -2.192480 -6.469440 -0.000000 -174.982000 -4.204710 1.245220 39.081100 -0.000007 -0.000012 0.021605 -0.075041 16.062000 40.985400 -0.000006 -0.000013 0.511702 14.120500 -70.441000 11.754300 -0.000000 0.000003 -0.001223 0.186149 -9.025450 -2.192510 6.469440 -0.000001 174.558000 4.926330 -175.716000 -39.081100 -0.002282 -0.040193 0.004153 -0.004067 11.344500 -40.985400 0.000008 0.000006 -7.336910 6.868950 -68.424000 -11.754300 -0.000006 -0.000006 -0.010438 0.274551 -5.418190
0.000000 0.000000 0.000000 0.000000 0.000000 -0.000000 1.049730 92.763800 2.285210 89.067100 1.440850 2.178040 15.735700 0.000005 -0.000001 87.746600 87.546700 -83.096500 8.984550 -0.406207 -0.000000 -2.821040 -0.621869 9.285760 16.377300 -0.000001 -0.000001 -0.448568 3.062830 0.069590 6.456720 -0.000001 -0.000000 5.017080 2.155880 21.571300 12.994200 -0.242716 4.980390 -88.588000 -2.732580 -62.659300 5.348090 -0.000007 -0.000001 -48.390200 -60.710300 -104.763000 24.328600 0.000019 0.000005 39.750900 38.162700 -53.389900 22.291600 -0.000001 0.000005 59.940100 4.897660 9.415880 12.994500 -0.242716 -4.980390 89.066900 3.098690 -73.232600 -5.348130 -0.000001 -0.000004 -65.272800 10.769100 -4.073380 -24.328900 0.000322 -0.000009 1.227300 5.042940 -13.708500 -22.291500 -0.000108 -0.000004 6.741880 5.199300 2.736750 -2.192480 -6.469440 -0.000000 -174.995000 -4.213570 1.364050 39.081100 -0.000007 -0.000012 0.022436 -0.077948 16.057800 40.985400 -0.000006 -0.000013 0.529393 14.103800 -70.459900 11.754300 -0.000000 0.000003 -0.001318 0.187455 -8.972360 -2.192510 6.469440 -0.000001 174.499000 4.971490 -175.582000 -39.081100 -0.002282 -0.040193 0.003017 0.001601 11.301400 -40.985400 0.000008 0.000006 -7.472780 6.973810 -68.389800 -11.754300 -0.000006 -0.000006 -0.010538 0.275282 -5.388280
0.000000 0.000000 0.000000 0.000000 0.000000 -0.000000 1.084330 92.753800 2.276330 89.108700 1.375090 2.277700 15.735700 0.000005 -0.000001 86.398500 87.495800 -81.692700 8.984550 -0.406207 -0.000000 -2.719690 -0.744468 9.394400 16.377300 -0.000001 -0.000001 -0.257166 3.319160 -0.146599 6.456720 -0.000001 -0.000000 4.760140 2.343400 21.407600 12.994200 -0.242716 4.980390 -88.582200 -2.734320 -62.578900 5.348090 -0.000007 -0.000001 -48.467700 -60.122100 -105.866000 24.328600 0.000019 0.000005 33.807400 37.247700 -47.888700 22.291600 -0.000001 0.000005 56.799100 4.930950 8.755980 12.994500 -0.242716 -4.980390 89.045600 3.165150 -73.210500 -5.348130 -0.000001 -0.000004 -65.643600 11.280500 -4.871370 -24.328900 0.000322 -0.000009 1.215140 4.851730 -14.090600 -22.291500 -0.000108 -0.000004 6.478620 5.204550 2.604960 -2.192480 -6.469440 -0.000000 -175.064000 -4.202420 1.445370 39.081100 -0.000007 -0.000012 0.024545 -0.084935 16.118900 40.985400 -0.000006 -0.000013 0.551287 14.024600 -70.496700 11.754300 -0.000000 0.000003 -0.001167 0.185386 -9.056440 -2.192510 6.469440 -0.000001 174.449000 4.875800 -175.580000 -39.081100 -0.002282 -0.040193 0.004276 -0.004632 11.467300 -40.985400 0.000008 0.000006 -7.377180 6.914800 -68.476100 -11.754300 -0.000006 -0.000006 -0.010205 0.272828 -5.488680
0.000000 0.000000 0.000000 0.000000 0.000000 -0.000000 1.100840 92.761300 2.265330 89.121900 1.343120 2.300710 15.735700 0.000005 -0.000001 85.082800 87.461500 -80.288100 8.984550 -0.406207 -0.000000 -2.653280 -0.870343 9.569770 16.377300 -0.000001 -0.000001 -0.236096 3.485660 -0.247608 6.456720 -0.000001 -0.000000 4.664680 2.524910 21.246600 12.994200 -0.242716 4.980390 -88.595900 -2.710220 -62.599200 5.348090 -0.000007 -0.000001 -49.327400 -59.318900 -106.912000 24.328600 0.000019 0.000005 27.171800 37.150800 -40.360500 22.291600 -0.000001 0.000005 55.284300 4.891670 9.545240 12.994500 -0.242716 -4.980390 89.029200 3.206770 -73.148100 -5.348130 -0.000001 -0.000004 -66.021700 11.979600 -5.510590 -24.328900 0.000322 -0.000009 1.221350 4.672100 -14.679900 -22.291500 -0.000108 -0.000004 6.408850 5.207020 2.542350 -2.192480 -6.469440 -0.000000 -175.072000 -4.304170 1.500060 39.081100 -0.000007 -0.000012 0.024428 -0.084940 16.045000 40.985400 -0.000006 -0.000013 0.560960 14.095300 -70.437400 11.754300 -0.000000 0.000003 -0.001216 0.186061 -9.029020 -2.192510 6.469440 -0.000001 174.416000 4.764030 -175.544000 -39.081100 -0.002282 -0.040193 0.003265 0.000354 11.405800 -40.985400 0.000008 0.000006 -7.581080 6.880720 -68.380600 -11.754300 -0.000006 -0.000006 -0.010295 0.273497 -5.461340
0.000000 0.000000 0.000000 0.000000 0.000000 -0.000000 1.100590 92.759000 2.250400 89.140800 1.319010 2.243490 15.735700 0.000005 -0.000001 83.457900 87.443600 -78.572100 8.984550 -0.406207 -0.000000 -2.624140 -1.024640 9.748770 16.377300 -0.000001 -0.000001 -0.202658 3.507250 -0.142616 6.456720 -0.000001 -0.000000 4.523320 2.629030 21.175500 12.994200 -0.242716 4.980390 -88.614700 -2.680510 -62.656200 5.348090 -0.000007 -0.000001 -49.289300 -58.969900 -106.250000 24.328600 0.000019 0.000005 19.312500 35.440300 -31.142400 22.291600 -0.000001 0.000005 53.539500 4.851730 10.332600 12.994500 -0.242716 -4.980390 89.030500 3.202560 -73.147600 -5.348130 -0.000001 -0.000004 -66.430900 12.688300 -6.002500 -24.328900 0.000322 -0.000009 1.186460 4.365390 -15.234100 -22.291500 -0.000108 -0.000004 6.166680 5.214050 2.364450 -2.192480 -6.469440 -0.000000 -175.073000 -4.416620 1.423800 39.081100 -0.000007 -0.000012 0.023896 -0.083015 16.058600 40.985400 -0.000006 -0.000013 0.576350 14.216000 -70.405300 11.754300 -0.000000 0.000003 -0.001149 0.185126 -9.067010 -2.192510 6.469440 -0.000001 174.423000 4.748170 -175.652000 -39.081100 -0.002282 -0.040193 0.004855 -0.007482 11.476800 -40.985400 0.000008 0.000006 -7.396000 6.857770 -68.434400 -11.754300 -0.000006 -0.000006 -0.010108 0.272112 -5.517990
